<?xml version="1.0" encoding="UTF-8" standalone="no"?>
<!-- Created with Inkscape (http://www.inkscape.org/) -->

<svg
   version="1.1"
   id="svg1"
   width="512"
   height="512"
   viewBox="0 0 512 512"
   xmlns="http://www.w3.org/2000/svg"
   xmlns:svg="http://www.w3.org/2000/svg">
  <defs
     id="defs1" />
  <g
     id="g1">
    <g
       id="g2">
      <path
         style="fill:#fdf6f8"
         d="M 70,257.06336 V 194 h 43.5 43.5 v 3 3 H 117 77 l -0.02864,26.75 c -0.01575,14.7125 -0.128253,41.6 -0.25,59.75 L 76.5,319.5 73.25,319.81336 70,320.12672 Z M 181,257 v -63 h 3 3 v 63 63 h -3 -3 z m 26,62.26379 c 0,-0.40492 14.0349,-28.97992 31.18866,-63.5 29.17208,-58.70563 31.35427,-62.762 33.75,-62.73613 2.36721,0.0256 3.90155,2.75414 20.24366,36 L 309.86464,265 h -3.44877 -3.44878 L 287.33896,233.63576 271.71083,202.27152 242.3903,261.13576 C 213.27729,319.58337 213.04828,320 210.03488,320 208.3657,320 207,319.6687 207,319.26379 Z M 322.23594,303.49221 C 317.70617,294.41293 314,286.76293 314,286.49221 314,286.2215 315.46883,286 317.26406,286 c 3.22099,0 3.37274,0.21784 11.5,16.50779 4.52977,9.07928 8.23594,16.72928 8.23594,17 0,0.27071 -1.46883,0.49221 -3.26406,0.49221 -3.22099,0 -3.37274,-0.21784 -11.5,-16.50779 z M 355,257 v -63 h 27.54216 c 30.21171,0 38.25308,0.95904 48.45784,5.77923 7.80762,3.68791 15.16263,11.37575 17.93996,18.75176 3.08715,8.19886 2.61678,22.47543 -0.9874,29.96901 -5.13736,10.68128 -16.24451,18.12157 -31.37397,21.01631 C 405.13756,271.70534 404,271.57989 404,268.12917 c 0,-2.77694 0.20275,-2.89378 6.19877,-3.57215 14.84098,-1.67906 26.0239,-7.96199 31.30123,-17.58605 2.70894,-4.94018 2.99911,-6.34414 2.99079,-14.47097 -0.008,-7.79762 -0.36291,-9.66799 -2.65675,-14 -4.6158,-8.71712 -11.26605,-13.41353 -23.3818,-16.51222 C 411.72018,200.26601 407.35588,200 385.84004,200 H 361 v 60 60 h -3 -3 z m -259,1 v -3 h 19.5 19.5 v 3 3 H 115.5 96 Z"
         id="path3" />
      <path
         style="fill:#eb175a"
         d="M 0,256 V 0 H 256 512 V 256 512 H 256 0 Z m 76.721358,30.5 c 0.121747,-18.15 0.234247,-45.0375 0.25,-59.75 L 77,200 h 40 40 v -3 -3 H 113.5 70 v 63.06336 63.06336 L 73.25,319.81336 76.5,319.5 Z M 187,257 v -63 h -3 -3 v 63 63 h 3 3 z m 55.3903,4.13576 29.32053,-58.86424 15.62813,31.36424 L 302.96709,265 h 3.44878 3.44877 l -17.68232,-35.97234 c -16.34211,-33.24586 -17.87645,-35.97444 -20.24366,-36 -2.39573,-0.0259 -4.57792,4.0305 -33.75,62.73613 C 221.0349,290.28387 207,318.85887 207,319.26379 207,319.6687 208.3657,320 210.03488,320 c 3.0134,0 3.24241,-0.41663 32.35542,-58.86424 z M 337,319.50779 c 0,-0.27072 -3.70617,-7.92072 -8.23594,-17 C 320.6368,286.21784 320.48505,286 317.26406,286 315.46883,286 314,286.2215 314,286.49221 c 0,0.27072 3.70617,7.92072 8.23594,17 C 330.3632,319.78216 330.51495,320 333.73594,320 335.53117,320 337,319.7785 337,319.50779 Z M 361,260 v -60 h 24.84004 c 21.51584,0 25.88014,0.26601 32.6122,1.98778 12.11575,3.09869 18.766,7.7951 23.3818,16.51222 2.29384,4.33201 2.64877,6.20238 2.65675,14 0.008,8.12683 -0.28185,9.53079 -2.99079,14.47097 -5.27733,9.62406 -16.46025,15.90699 -31.30123,17.58605 -5.99602,0.67837 -6.19877,0.79521 -6.19877,3.57215 0,3.45072 1.13756,3.57617 12.57859,1.38714 15.12946,-2.89474 26.23661,-10.33503 31.37397,-21.01631 3.60418,-7.49358 4.07455,-21.77015 0.9874,-29.96901 C 446.16263,211.15498 438.80762,203.46714 431,199.77923 420.79524,194.95904 412.75387,194 382.54216,194 H 355 v 63 63 h 3 3 z m -226,-2 v -3 H 115.5 96 v 3 3 h 19.5 19.5 z"
         id="path2" />
    </g>
  </g>
</svg>
